<svg xmlns="http://www.w3.org/2000/svg" xmlns:xlink="http://www.w3.org/1999/xlink" width="140" zoomAndPan="magnify" viewBox="0 0 104.88 52.499999" height="70" preserveAspectRatio="xMidYMid meet" version="1.0"><defs><g/><clipPath id="299ea1e716"><path d="M 91.140625 0 L 104.324219 0 L 104.324219 52 L 91.140625 52 Z M 91.140625 0 " clip-rule="nonzero"/></clipPath><clipPath id="bacc567e39"><path d="M 0.433594 0 L 13.546875 0 L 13.546875 52.003906 L 0.433594 52.003906 Z M 0.433594 0 " clip-rule="nonzero"/></clipPath><clipPath id="3bfd8a7a38"><path d="M 0.433594 0 L 13.546875 0 L 13.546875 52 L 0.433594 52 Z M 0.433594 0 " clip-rule="nonzero"/></clipPath><clipPath id="319866592c"><rect x="0" width="14" y="0" height="53"/></clipPath><clipPath id="8f273e7b93"><path d="M 12 4 L 63 4 L 63 52.003906 L 12 52.003906 Z M 12 4 " clip-rule="nonzero"/></clipPath><clipPath id="1f9dffe47a"><path d="M 3 0.277344 L 50.722656 0.277344 L 50.722656 42 L 3 42 Z M 3 0.277344 " clip-rule="nonzero"/></clipPath><clipPath id="2fc3edaac6"><rect x="0" width="51" y="0" height="49"/></clipPath><clipPath id="af2557b744"><path d="M 51 10 L 89 10 L 89 52.003906 L 51 52.003906 Z M 51 10 " clip-rule="nonzero"/></clipPath><clipPath id="64f650b1b2"><path d="M 0.0742188 0.222656 L 37 0.222656 L 37 36 L 0.0742188 36 Z M 0.0742188 0.222656 " clip-rule="nonzero"/></clipPath><clipPath id="abaadd7fcd"><rect x="0" width="38" y="0" height="43"/></clipPath></defs><g clip-path="url(#299ea1e716)"><path fill="#000000" d="M 91.140625 51.667969 L 91.140625 45.664062 L 98.550781 45.664062 L 98.550781 6.046875 L 91.140625 6.046875 L 91.140625 0.0429688 L 105.324219 0.0429688 L 105.324219 51.796875 L 91.140625 51.796875 Z M 91.140625 51.667969 " fill-opacity="1" fill-rule="nonzero"/></g><g clip-path="url(#bacc567e39)"><g transform="matrix(1, 0, 0, 1, 0.000000000000000056, 0)"><g clip-path="url(#319866592c)"><g clip-path="url(#3bfd8a7a38)"><path fill="#000000" d="M 13.617188 51.667969 L 13.617188 45.664062 L 6.203125 45.664062 L 6.203125 6.046875 L 13.617188 6.046875 L 13.617188 0.0429688 L -0.566406 0.0429688 L -0.566406 51.796875 L 13.617188 51.796875 Z M 13.617188 51.667969 " fill-opacity="1" fill-rule="nonzero"/></g></g></g></g><g clip-path="url(#8f273e7b93)"><g transform="matrix(1, 0, 0, 1, 12, 4)"><g clip-path="url(#2fc3edaac6)"><g clip-path="url(#1f9dffe47a)"><g fill="#000000" fill-opacity="1"><g transform="translate(0.904826, 41.858227)"><g><path d="M 48 0 L 39.203125 0 C 38.328125 0 37.890625 -0.507812 37.890625 -1.53125 L 37.890625 -33.703125 L 23.90625 -8.5 L 22.96875 -8.5 L 6.25 -35.234375 L 6.25 -16.828125 L 13.9375 -3.953125 C 14.25 -3.554688 14.5625 -3.191406 14.875 -2.859375 C 15.1875 -2.523438 15.34375 -2.082031 15.34375 -1.53125 C 15.34375 -0.507812 14.910156 0 14.046875 0 L 6.734375 0 C 5.867188 0 5.4375 -0.507812 5.4375 -1.53125 L 5.4375 -36.59375 L 2.890625 -40.671875 C 2.890625 -40.867188 2.914062 -41.023438 2.96875 -41.140625 C 3.03125 -41.265625 3.203125 -41.328125 3.484375 -41.328125 L 13.28125 -41.328125 C 14.226562 -41.328125 14.957031 -40.910156 15.46875 -40.078125 L 28.75 -19.125 L 40.5 -40.375 C 40.695312 -40.769531 40.941406 -41.023438 41.234375 -41.140625 C 41.523438 -41.265625 41.925781 -41.328125 42.4375 -41.328125 L 48 -41.328125 C 48.863281 -41.328125 49.296875 -40.8125 49.296875 -39.78125 L 49.296875 -1.53125 C 49.296875 -0.507812 48.863281 0 48 0 Z M 48 0 "/></g></g></g></g></g></g></g><g clip-path="url(#af2557b744)"><g transform="matrix(1, 0, 0, 1, 51, 10)"><g clip-path="url(#abaadd7fcd)"><g clip-path="url(#64f650b1b2)"><g fill="#000000" fill-opacity="1"><g transform="translate(0.227931, 35.856587)"><g><path d="M 9.359375 0 L 1.421875 0 C 1.015625 0 0.742188 -0.132812 0.609375 -0.40625 C 0.472656 -0.675781 0.472656 -0.976562 0.609375 -1.3125 L 15.265625 -34.078125 C 15.429688 -34.453125 15.675781 -34.765625 16 -35.015625 C 16.320312 -35.265625 16.648438 -35.390625 16.984375 -35.390625 L 20.078125 -35.390625 C 20.515625 -35.390625 20.890625 -35.265625 21.203125 -35.015625 C 21.523438 -34.765625 21.753906 -34.453125 21.890625 -34.078125 L 36.5625 -1.3125 C 36.695312 -0.976562 36.695312 -0.675781 36.5625 -0.40625 C 36.425781 -0.132812 36.15625 0 35.75 0 L 28.359375 0 C 27.921875 0 27.550781 -0.125 27.25 -0.375 C 26.945312 -0.632812 26.710938 -0.945312 26.546875 -1.3125 L 22.796875 -9.65625 L 6.71875 -9.65625 L 10.46875 -1.3125 C 10.632812 -0.945312 10.625 -0.632812 10.4375 -0.375 C 10.25 -0.125 9.890625 0 9.359375 0 Z M 22.5 -10.359375 L 13.953125 -29.53125 L 5.921875 -11.484375 L 6.421875 -10.359375 Z M 22.5 -10.359375 "/></g></g></g></g></g></g></g></svg>